# xmcd
#
# Track frame offsets: 
#        150
#        17277
#        34012
#        47015
#        68785
#        96805
#        118063
#        137123
#        150370
#        169730
#        176980
#
# Disc length: 2534 seconds
#
# Revision: 3
# Processed by: cddbd v1.5.2PL0 Copyright (c) Steve Scherf et al.
# Submitted via: ExactAudioCopy v0.99pb5
#
DISCID=8809e40b
DTITLE=The Beat Daddys - South to Mississippi
DYEAR=1994
DGENRE=Blues
TTITLE0=Delta Lady
TTITLE1=Train in the Distance
TTITLE2=How Blue Must I Get¿
TTITLE3=Rainin' in the Real World
TTITLE4=The Love of a Women
TTITLE5=Woman's got the Power
TTITLE6=Good Time
TTITLE7=Hoosier Lottery
TTITLE8=She got the Moves
TTITLE9=Amazing Grace
TTITLE10=Mississippi
EXTD=YEAR: 1994
EXTT0=
EXTT1=
EXTT2=
EXTT3=
EXTT4=
EXTT5=
EXTT6=
EXTT7=
EXTT8=
EXTT9=
EXTT10=
PLAYORDER=
